# xmcd CD database file
#
# Track frame offsets:
#	150
#	19291
#	23368
#	45904
#	59789
#	74367
#	86598
#	105525
#	127940
#	147573
#	161195
#	181877
#
# Disc length: 2664 seconds
#
# Revision: 0
# Processed by: cddbd v1.5.1PL0 Copyright (c) Steve Scherf et al.
# Submitted via: CDex 1.50beta10
#
DISCID=a00a660c
DTITLE=赤い鳥 - コンプリートコレクション　disk5
DYEAR=1900
DGENRE=Folk
TTITLE0=きみの友だち
TTITLE1=レクイエム
TTITLE2=エーメン
TTITLE3=COME AND GO WITH ME
TTITLE4=窓に明りがともる時
TTITLE5=WHAT A BEAUTIFUL WORLD
TTITLE6=翼をください
TTITLE7=もうっこ
TTITLE8=ちっちゃな子守唄
TTITLE9=竹田の子守唄
TTITLE10=河
TTITLE11=フィンランディア〜レクイエム・エーメンより
EXTD=
EXTT0=
EXTT1=
EXTT2=
EXTT3=
EXTT4=
EXTT5=
EXTT6=
EXTT7=
EXTT8=
EXTT9=
EXTT10=
EXTT11=
PLAYORDER=
